<?xml version="1.0" encoding="utf-8"?>
<!-- Generator: Adobe Illustrator 16.0.0, SVG Export Plug-In . SVG Version: 6.00 Build 0)  -->
<!DOCTYPE svg PUBLIC "-//W3C//DTD SVG 1.1 Tiny//EN" "http://www.w3.org/Graphics/SVG/1.1/DTD/svg11-tiny.dtd">
<svg version="1.1" baseProfile="tiny" id="Layer_1" xmlns="http://www.w3.org/2000/svg" xmlns:xlink="http://www.w3.org/1999/xlink"
	 x="0px" y="0px" width="46.6px" height="49.8px" viewBox="0 0 46.6 49.8" xml:space="preserve">
<g>
	<circle fill="#53A0A9" cx="23.8" cy="24.3" r="19.3"/>
	<g>
		<g>
			<path d="M37.3,2.8c-0.5,0-0.9,0.1-1.4,0.2l0.4,1.5c2.8-0.7,5.3,1.5,5.3,4.2c0,6.3-7.2,11-10.2,11.9l0.4,1.4
				C35.6,20.7,43,15.5,43,8.6C43,5.4,40.4,2.8,37.3,2.8z"/>
		</g>
	</g>
	<g>
		<g>
			<path d="M4.9,8.6c0-2.7,2.5-4.9,5.3-4.2l0.4-1.5C6.8,2,3.4,4.9,3.4,8.6c0,7,7.5,12.2,11.3,13.3l0.4-1.4
				C12.1,19.5,4.9,14.9,4.9,8.6z"/>
		</g>
	</g>
	<g>
		<g>
			<path d="M25.8,28.8h-5.2c-0.4,0-0.8,0.3-0.8,0.8v2.9c0,0.2,0.1,0.4,0.3,0.6c0.1,0.1,0.3,0.2,0.5,0.2c0.1,0,0.1,0,0.2,0
				c1.5-0.3,3.3-0.3,4.9,0c0.2,0,0.5,0,0.6-0.1c0.2-0.1,0.3-0.4,0.3-0.6v-2.9C26.6,29.1,26.3,28.8,25.8,28.8z M25.1,31.5
				c-1.2-0.2-2.5-0.2-3.7,0v-1.2v0h3.7V31.5z"/>
		</g>
	</g>
	<g>
		<g>
			<path d="M33.4,44.6H13.1c-0.4,0-0.8,0.3-0.8,0.8v2.8c0,0.4,0.3,0.8,0.8,0.8h20.3c0.4,0,0.8-0.3,0.8-0.8v-2.8
				C34.1,45,33.8,44.6,33.4,44.6z M32.6,47.4H13.8v-1.3h18.8V47.4z"/>
		</g>
	</g>
	<g>
		<g>
			<path d="M32.1,34.1H14.4c-0.4,0-0.8,0.3-0.8,0.8v10.6c0,0.4,0.3,0.8,0.8,0.8h17.7c0.4,0,0.8-0.3,0.8-0.8V34.8
				C32.8,34.4,32.5,34.1,32.1,34.1z M31.3,44.6H15.1v-9.1h16.2V44.6z"/>
		</g>
	</g>
	<g>
		<g>
			<path d="M29.1,37.1H17.4c-0.4,0-0.8,0.3-0.8,0.8v4.6c0,0.4,0.3,0.8,0.8,0.8h11.7c0.4,0,0.8-0.3,0.8-0.8v-4.6
				C29.8,37.4,29.5,37.1,29.1,37.1z M28.3,41.6H18.1v-3.1h10.2V41.6z"/>
		</g>
	</g>
	<g>
		<g>
			<path d="M36.5,1.2c-0.2-0.2-0.6-0.4-0.9-0.4H10.9c-0.3,0-0.7,0.1-0.9,0.4C9.8,1.4,9.6,1.8,9.6,2.1c0,0.5,0,1,0,1.6
				c0,0.5,0,0.9,0.1,1.4c0.4,5.6,1.6,10.7,3.6,14.7c0.3,0.6,0.6,1.2,0.9,1.7c1.5,2.6,3.2,4.4,5.1,5.5c0.2,0.1,0.4,0.1,0.6,0
				c0.2,0,0.4,0,0.6,0h5.8c0.1,0,0.2,0,0.3,0c0.1,0,0.3,0,0.4-0.1c1.9-1.1,3.6-2.9,5.1-5.5c0.3-0.6,0.6-1.1,0.9-1.7
				c2-4.1,3.2-9.1,3.6-14.7c0-0.5,0.1-0.9,0.1-1.4c0-0.5,0-1.1,0-1.6C36.8,1.8,36.7,1.4,36.5,1.2z M35.3,3.6c0,0.4,0,0.9-0.1,1.3
				c-0.4,5.4-1.5,10.3-3.4,14.2c-0.3,0.6-0.6,1.1-0.9,1.6c-1.3,2.2-2.8,3.8-4.3,4.8h-6c0,0-0.5,0-0.7,0c-1.6-0.9-3-2.6-4.3-4.8
				c-0.3-0.5-0.6-1.1-0.9-1.6c-1.9-3.9-3.1-8.8-3.4-14.2c0-0.4-0.1-0.9-0.1-1.4c0-0.4,0-0.8,0-1.2h24.2C35.3,2.8,35.3,3.2,35.3,3.6z
				"/>
		</g>
	</g>
	<g>
		<g>
			<path d="M32.3,4.1c0,0.2,0,0.5,0,0.7c-0.3,4.7-1.4,9-3,12.4c-0.2,0.5-0.5,0.9-0.7,1.4c-0.9,1.5-1.9,2.7-2.9,3.4l0.9,1.2
				c1.2-0.8,2.3-2.2,3.3-3.9c0.3-0.5,0.5-1,0.8-1.5c1.7-3.5,2.8-8.1,3.1-12.9c0-0.2,0-0.5,0-0.7L32.3,4.1z"/>
		</g>
	</g>
	<g>
		<g>
			<path d="M25.8,25.5h-5.2c-1.3,0-1.4,2.5-1.4,2.5c0,0,0.1,2.3,1.4,2.3h5.2c1.2,0,1.4-2.3,1.4-2.3C27.3,28,27.1,25.5,25.8,25.5z
				 M25.6,28.8h-4.7c-0.1-0.2-0.2-0.7-0.2-0.8c0-0.2,0.1-0.7,0.2-1h4.6c0.1,0.3,0.2,0.8,0.2,1C25.8,28.1,25.7,28.6,25.6,28.8z"/>
		</g>
	</g>
	<g>
		<g>
			<path d="M26,31.7c-1.8-0.4-3.8-0.4-5.5,0c-2.5,0.5-4,1.7-4,3.1c0,0.4,0.3,0.8,0.8,0.8h12c0.4,0,0.8-0.3,0.8-0.8
				C30,33.4,28.5,32.2,26,31.7z M18.5,34.1c0.5-0.3,1.2-0.7,2.3-0.9c1.5-0.3,3.3-0.3,4.9,0c1,0.2,1.8,0.6,2.3,0.9H18.5z"/>
		</g>
	</g>
</g>
</svg>
