<?xml version="1.0" encoding="utf-8"?>
<!-- Generator: Adobe Illustrator 16.0.0, SVG Export Plug-In . SVG Version: 6.00 Build 0)  -->
<!DOCTYPE svg PUBLIC "-//W3C//DTD SVG 1.1//EN" "http://www.w3.org/Graphics/SVG/1.1/DTD/svg11.dtd">
<svg version="1.1" id="Layer_1" xmlns="http://www.w3.org/2000/svg" xmlns:xlink="http://www.w3.org/1999/xlink" x="0px" y="0px"
	 width="167.333px" height="180px" viewBox="0 0 167.333 180" enable-background="new 0 0 167.333 180" xml:space="preserve">
<g>
	<g>
		<path d="M112.999,74.18l17.538-12.959c1.813-1.326,1.493-4.123-0.575-5.004L6.887,3.848C4.842,2.977,2.62,4.638,2.875,6.846
			l2.502,21.621c0.12,1.033,0.786,1.924,1.744,2.332l103.034,43.707C111.095,74.906,112.175,74.782,112.999,74.18z"/>
		<path fill="#53A0A9" d="M160.756,70.837l-20.263-8.646c-0.94-0.4-2.022-0.275-2.847,0.329l-88.834,66.061
			c-0.84,0.615-1.285,1.634-1.165,2.668l2.492,21.534c0.255,2.208,2.799,3.318,4.591,2.004l106.604-78.95
			C163.145,74.509,162.822,71.717,160.756,70.837z"/>
		<path d="M30.958,46.686l-19.998-8.02c-2.044-0.867-4.264,0.794-4.009,3l15.256,132.178c0.255,2.208,2.799,3.317,4.591,2.003
			L44.394,163c0.84-0.616,1.284-1.635,1.164-2.669L32.704,49.02C32.583,47.985,31.917,47.093,30.958,46.686z"/>
	</g>
</g>
</svg>
