<?xml version="1.0" encoding="utf-8"?>
<!-- Generator: Adobe Illustrator 16.0.0, SVG Export Plug-In . SVG Version: 6.00 Build 0)  -->
<!DOCTYPE svg PUBLIC "-//W3C//DTD SVG 1.1 Tiny//EN" "http://www.w3.org/Graphics/SVG/1.1/DTD/svg11-tiny.dtd">
<svg version="1.1" baseProfile="tiny" id="Layer_1" xmlns="http://www.w3.org/2000/svg" xmlns:xlink="http://www.w3.org/1999/xlink"
	 x="0px" y="0px" width="50.2px" height="49.8px" viewBox="0 0 50.2 49.8" xml:space="preserve">
<g>
	<circle fill="#53A0A9" cx="23.5" cy="25.9" r="21.3"/>
	<g>
		<g>
			<g>
				<path d="M26.6,1.2c-12.1,0-22,9.9-22,22s9.9,22,22,22s22-9.9,22-22S38.7,1.2,26.6,1.2z M26.6,43.4c-11.1,0-20.2-9-20.2-20.2
					S15.5,3,26.6,3c11.1,0,20.2,9,20.2,20.2S37.7,43.4,26.6,43.4z"/>
				<path d="M42.2,19.1h-2.5c-0.2-0.8-0.5-1.5-0.9-2.2l1.8-1.8c0.3-0.3,0.5-0.8,0.5-1.3s-0.2-0.9-0.5-1.3l-3.2-3.2
					C37,8.9,36.5,8.7,36,8.7c-0.5,0-0.9,0.2-1.3,0.5L33,11c-0.7-0.4-1.5-0.7-2.2-0.9V7.6c0-1-0.8-1.8-1.8-1.8h-4.6
					c-1,0-1.8,0.8-1.8,1.8v2.5c-0.8,0.2-1.5,0.5-2.2,0.9l-1.8-1.8c-0.3-0.3-0.8-0.5-1.3-0.5c-0.5,0-0.9,0.2-1.3,0.5l-3.2,3.2
					c-0.3,0.3-0.5,0.8-0.5,1.3s0.2,0.9,0.5,1.3l1.8,1.8c-0.4,0.7-0.7,1.5-0.9,2.2H11c-1,0-1.8,0.8-1.8,1.8v4.6c0,1,0.8,1.8,1.8,1.8
					h2.5c0.2,0.8,0.5,1.5,0.9,2.2l-1.8,1.8c-0.3,0.3-0.5,0.8-0.5,1.3s0.2,0.9,0.5,1.3l3.2,3.2c0.3,0.3,0.8,0.5,1.3,0.5
					c0.5,0,0.9-0.2,1.3-0.5l1.8-1.8c0.7,0.4,1.5,0.7,2.2,0.9v2.5c0,1,0.8,1.8,1.8,1.8h4.6c1,0,1.8-0.8,1.8-1.8v-2.5
					c0.8-0.2,1.5-0.5,2.2-0.9l1.8,1.8c0.3,0.3,0.8,0.5,1.3,0.5c0.5,0,0.9-0.2,1.3-0.5l3.2-3.2c0.3-0.3,0.5-0.8,0.5-1.3
					s-0.2-0.9-0.5-1.3l-1.8-1.8c0.4-0.7,0.7-1.5,0.9-2.2h2.5c1,0,1.8-0.8,1.8-1.8v-4.6C44,19.9,43.2,19.1,42.2,19.1z M42.2,25.5H39
					c-0.4,0-0.8,0.3-0.9,0.7c-0.3,1.1-0.7,2.1-1.3,3.1c-0.2,0.4-0.2,0.8,0.1,1.1l2.2,2.2L36,35.8l-2.2-2.2c-0.3-0.3-0.8-0.4-1.1-0.1
					c-0.9,0.6-2,1-3.1,1.3c-0.4,0.1-0.7,0.5-0.7,0.9v3.2h-4.6v-3.2c0-0.4-0.3-0.8-0.7-0.9c-1.1-0.3-2.1-0.7-3.1-1.3
					c-0.1-0.1-0.3-0.1-0.5-0.1c-0.2,0-0.5,0.1-0.6,0.3l-2.2,2.2L14,32.6l2.2-2.2c0.3-0.3,0.4-0.8,0.1-1.1c-0.6-0.9-1-2-1.3-3.1
					c-0.1-0.4-0.5-0.7-0.9-0.7H11v-4.6h3.2c0.4,0,0.8-0.3,0.9-0.7c0.3-1.1,0.7-2.1,1.3-3.1c0.2-0.4,0.2-0.8-0.1-1.1L14,13.8l3.2-3.2
					l2.2,2.2c0.3,0.3,0.8,0.4,1.1,0.1c0.9-0.6,2-1,3.1-1.3c0.4-0.1,0.7-0.5,0.7-0.9V7.6h4.6v3.2c0,0.4,0.3,0.8,0.7,0.9
					c1.1,0.3,2.1,0.7,3.1,1.3c0.4,0.2,0.8,0.2,1.1-0.1l2.2-2.2l3.2,3.2L37,16c-0.3,0.3-0.4,0.8-0.1,1.1c0.6,0.9,1,2,1.3,3.1
					c0.1,0.4,0.5,0.7,0.9,0.7h3.2V25.5z"/>
				<path d="M35,28l-3.7-3.2l-1.2,1.4l1.8,1.6h-5.4c-2.5,0-4.6-2.1-4.6-4.6h-1.8c0,3.5,2.9,6.4,6.4,6.4H32l-1.8,1.6l1.2,1.4l3.7-3.2
					c0.2-0.2,0.3-0.4,0.3-0.7S35.2,28.2,35,28z"/>
				<path d="M23.1,20.2l-1.8-1.6h5.4c2.5,0,4.6,2.1,4.6,4.6H33c0-3.5-2.9-6.4-6.4-6.4h-5.4l1.8-1.6l-1.2-1.4L18.2,17
					c-0.2,0.2-0.3,0.4-0.3,0.7s0.1,0.5,0.3,0.7l3.7,3.2L23.1,20.2z"/>
			</g>
		</g>
	</g>
</g>
</svg>
